
<svg width="935px" height="222px" viewBox="0 0 935 222" version="1.1" xmlns="http://www.w3.org/2000/svg" xmlns:xlink="http://www.w3.org/1999/xlink">
    <!-- Generator: Sketch 50.2 (55047) - http://www.bohemiancoding.com/sketch -->
    <desc>Created with Sketch.</desc>
    <defs>
        <linearGradient x1="50%" y1="25.9220155%" x2="50%" y2="98.375812%" id="linearGradient-1">
            <stop stop-color="#8C1238" offset="0%"></stop>
            <stop stop-color="#0E1B46" offset="100%"></stop>
        </linearGradient>
    </defs>
    <g id="Page-1" stroke="none" stroke-width="1" fill="none" fill-rule="evenodd">
        <g id="trees-1" fill="url(#linearGradient-1)">
            <polygon id="Rectangle-2" points="0 222 37 25 75 189 93 66 111 141 136 0 163 184 203 16 250 196 268 88 293 172 322 52 374 196 407 88 428 162 454 51 472 166 493 76 512 147 539 82 560 194 585 111 605 164 640 45 677 147 700 82 723 177 754 132 783 196 798 162 828 194 848 141 867 196 884 162 899 196 911 162 935 222"></polygon>
        </g>
    </g>
</svg>